999
Inkscape export via Big Blue Saws DXF Export" (http://www.bigbluesaw.com/saw/big-blue-saw-blog/general-updates/big-blue-saws-dxf-export-for-inkscape.html)
  0
SECTION
  2
HEADER
  9
$ACADVER
  1
AC1014
  9
$HANDSEED
  5
FFFF
  0
$INSUNITS
 70
 1
 9
ENDSEC
  0
SECTION
  2
TABLES
  0
TABLE
  2
VPORT
  5
8
330
0
100
AcDbSymbolTable
 70
     4
  0
VPORT
  5
2E
330
8
100
AcDbSymbolTableRecord
100
AcDbViewportTableRecord
  2
*ACTIVE
 70
     0
 10
0.0
 20
0.0
 11
1.0
 21
1.0
 12
4.25
 22
5.5
 13
0.0
 23
0.0
 14
10.0
 24
10.0
 15
10.0
 25
10.0
 16
0.0
 26
0.0
 36
1.0
 17
0.0
 27
0.0
 37
0.0
 40
11
 41
1.24
 42
50.0
 43
0.0
 44
0.0
 50
0.0
 51
0.0
 71
     0
 72
   100
 73
     1
 74
     3
 75
     0
 76
     0
 77
     0
 78
     0
  0
ENDTAB
  0
TABLE
  2
LTYPE
  5
5
330
0
100
AcDbSymbolTable
 70
     1
  0
LTYPE
  5
14
330
5
100
AcDbSymbolTableRecord
100
AcDbLinetypeTableRecord
  2
BYBLOCK
 70
     0
  3

 72
    65
 73
     0
 40
0.0
  0
LTYPE
  5
15
330
5
100
AcDbSymbolTableRecord
100
AcDbLinetypeTableRecord
  2
BYLAYER
 70
     0
  3

 72
    65
 73
     0
 40
0.0
  0
LTYPE
  5
16
330
5
100
AcDbSymbolTableRecord
100
AcDbLinetypeTableRecord
  2
CONTINUOUS
 70
     0
  3
Solid line
 72
    65
 73
     0
 40
0.0
  0
ENDTAB
  0
TABLE
  2
STYLE
  5
3
330
0
100
AcDbSymbolTable
 70
     1
  0
STYLE
  5
11
330
3
100
AcDbSymbolTableRecord
100
AcDbTextStyleTableRecord
  2
STANDARD
 70
     0
 40
0.0
 41
1.0
 50
0.0
 71
     0
 42
2.5
  3
txt
  4

  0
ENDTAB
  0
TABLE
  2
VIEW
  5
6
330
0
100
AcDbSymbolTable
 70
     0
  0
ENDTAB
  0
TABLE
  2
UCS
  5
7
330
0
100
AcDbSymbolTable
 70
     0
  0
ENDTAB
  0
TABLE
  2
APPID
  5
9
330
0
100
AcDbSymbolTable
 70
     2
  0
APPID
  5
12
330
9
100
AcDbSymbolTableRecord
100
AcDbRegAppTableRecord
  2
ACAD
 70
     0
  0
ENDTAB
  0
TABLE
  2
DIMSTYLE
  5
A
330
0
100
AcDbSymbolTable
 70
     1
  0
DIMSTYLE
105
27
330
A
100
AcDbSymbolTableRecord
100
AcDbDimStyleTableRecord
  2
ISO-25
 70
     0
  3

  4

  5

  6

  7

 40
1.0
 41
2.5
 42
0.625
 43
3.75
 44
1.25
 45
0.0
 46
0.0
 47
0.0
 48
0.0
140
2.5
141
2.5
142
0.0
143
0.03937007874016
144
1.0
145
0.0
146
1.0
147
0.625
 71
     0
 72
     0
 73
     0
 74
     0
 75
     0
 76
     0
 77
     1
 78
     8
170
     0
171
     3
172
     1
173
     0
174
     0
175
     0
176
     0
177
     0
178
     0
270
     2
271
     2
272
     2
273
     2
274
     3
340
11
275
     0
280
     0
281
     0
282
     0
283
     0
284
     8
285
     0
286
     0
287
     3
288
     0
  0
ENDTAB
  0
TABLE
  2
BLOCK_RECORD
  5
1
330
0
100
AcDbSymbolTable
 70
     1
  0
BLOCK_RECORD
  5
1F
330
1
100
AcDbSymbolTableRecord
100
AcDbBlockTableRecord
  2
*MODEL_SPACE
  0
BLOCK_RECORD
  5
1B
330
1
100
AcDbSymbolTableRecord
100
AcDbBlockTableRecord
  2
*PAPER_SPACE
  0
ENDTAB
0
TABLE
2
LAYER
5
2
330
0
100
AcDbSymbolTable
70
1
0
LAYER
5
10
330
2
100
AcDbSymbolTableRecord
100
AcDbLayerTableRecord
2
Layer_1
70
0
62
7
6
CONTINUOUS
0
ENDTAB
0
ENDSEC
  0
SECTION
  2
BLOCKS
  0
BLOCK
  5
20
330
1F
100
AcDbEntity
  8
0
100
AcDbBlockBegin
  2
*MODEL_SPACE
 70
     0
 10
0.0
 20
0.0
 30
0.0
  3
*MODEL_SPACE
  1

  0
ENDBLK
  5
21
330
1F
100
AcDbEntity
  8
0
100
AcDbBlockEnd
  0
BLOCK
  5
1C
330
1B
100
AcDbEntity
 67
     1
  8
0
100
AcDbBlockBegin
  2
*PAPER_SPACE
  1

  0
ENDBLK
  5
1D
330
1B
100
AcDbEntity
 67
     1
  8
0
100
AcDbBlockEnd
  0
ENDSEC
  0
SECTION
  2
ENTITIES
0
LINE
8
Layer_1
62
0
5
100
100
AcDbEntity
100
AcDbLine
10
-20.066000
20
15.355278
30
0.0
11
-20.066000
21
25.515278
31
0.0
0
LINE
8
Layer_1
62
0
5
101
100
AcDbEntity
100
AcDbLine
10
-20.066000
20
25.515278
30
0.0
11
20.066000
21
25.515278
31
0.0
0
LINE
8
Layer_1
62
0
5
102
100
AcDbEntity
100
AcDbLine
10
20.066000
20
25.515278
30
0.0
11
20.066000
21
15.355278
31
0.0
0
LINE
8
Layer_1
62
0
5
103
100
AcDbEntity
100
AcDbLine
10
-5.080000
20
6.465278
30
0.0
11
-5.080000
21
-18.934722
31
0.0
0
LINE
8
Layer_1
62
0
5
104
100
AcDbEntity
100
AcDbLine
10
-5.080000
20
-18.934722
30
0.0
11
5.080000
21
-18.934722
31
0.0
0
LINE
8
Layer_1
62
0
5
105
100
AcDbEntity
100
AcDbLine
10
5.080000
20
-18.934722
30
0.0
11
5.080000
21
6.465278
31
0.0
0
LINE
8
Layer_1
62
0
5
106
100
AcDbEntity
100
AcDbLine
10
-20.066000
20
15.355278
30
0.0
11
-20.055138
21
15.177609
31
0.0
0
LINE
8
Layer_1
62
0
5
107
100
AcDbEntity
100
AcDbLine
10
-20.055138
20
15.177609
30
0.0
11
-20.023010
21
15.001772
31
0.0
0
LINE
8
Layer_1
62
0
5
108
100
AcDbEntity
100
AcDbLine
10
-20.023010
20
15.001772
30
0.0
11
-19.970302
21
14.827737
31
0.0
0
LINE
8
Layer_1
62
0
5
109
100
AcDbEntity
100
AcDbLine
10
-19.970302
20
14.827737
30
0.0
11
-19.897700
21
14.655475
31
0.0
0
LINE
8
Layer_1
62
0
5
10a
100
AcDbEntity
100
AcDbLine
10
-19.897700
20
14.655475
30
0.0
11
-19.805890
21
14.484958
31
0.0
0
LINE
8
Layer_1
62
0
5
10b
100
AcDbEntity
100
AcDbLine
10
-19.805890
20
14.484958
30
0.0
11
-19.695557
21
14.316155
31
0.0
0
LINE
8
Layer_1
62
0
5
10c
100
AcDbEntity
100
AcDbLine
10
-19.695557
20
14.316155
30
0.0
11
-19.422070
21
13.983578
31
0.0
0
LINE
8
Layer_1
62
0
5
10d
100
AcDbEntity
100
AcDbLine
10
-19.422070
20
13.983578
30
0.0
11
-19.082727
21
13.657513
31
0.0
0
LINE
8
Layer_1
62
0
5
10e
100
AcDbEntity
100
AcDbLine
10
-19.082727
20
13.657513
30
0.0
11
-18.683015
21
13.337726
31
0.0
0
LINE
8
Layer_1
62
0
5
10f
100
AcDbEntity
100
AcDbLine
10
-18.683015
20
13.337726
30
0.0
11
-18.228422
21
13.023986
31
0.0
0
LINE
8
Layer_1
62
0
5
110
100
AcDbEntity
100
AcDbLine
10
-18.228422
20
13.023986
30
0.0
11
-17.724438
21
12.716059
31
0.0
0
LINE
8
Layer_1
62
0
5
111
100
AcDbEntity
100
AcDbLine
10
-17.724438
20
12.716059
30
0.0
11
-17.176548
21
12.413713
31
0.0
0
LINE
8
Layer_1
62
0
5
112
100
AcDbEntity
100
AcDbLine
10
-17.176548
20
12.413713
30
0.0
11
-16.590243
21
12.116716
31
0.0
0
LINE
8
Layer_1
62
0
5
113
100
AcDbEntity
100
AcDbLine
10
-16.590243
20
12.116716
30
0.0
11
-15.971010
21
11.824834
31
0.0
0
LINE
8
Layer_1
62
0
5
114
100
AcDbEntity
100
AcDbLine
10
-15.971010
20
11.824834
30
0.0
11
-15.324336
21
11.537836
31
0.0
0
LINE
8
Layer_1
62
0
5
115
100
AcDbEntity
100
AcDbLine
10
-15.324336
20
11.537836
30
0.0
11
-13.970620
21
10.977560
31
0.0
0
LINE
8
Layer_1
62
0
5
116
100
AcDbEntity
100
AcDbLine
10
-13.970620
20
10.977560
30
0.0
11
-12.573000
21
10.434028
31
0.0
0
LINE
8
Layer_1
62
0
5
117
100
AcDbEntity
100
AcDbLine
10
-12.573000
20
10.434028
30
0.0
11
-9.821664
21
9.389750
31
0.0
0
LINE
8
Layer_1
62
0
5
118
100
AcDbEntity
100
AcDbLine
10
-9.821664
20
9.389750
30
0.0
11
-8.555757
21
8.885285
31
0.0
0
LINE
8
Layer_1
62
0
5
119
100
AcDbEntity
100
AcDbLine
10
-8.555757
20
8.885285
30
0.0
11
-7.421563
21
8.390121
31
0.0
0
LINE
8
Layer_1
62
0
5
11a
100
AcDbEntity
100
AcDbLine
10
-7.421563
20
8.390121
30
0.0
11
-6.917578
21
8.145446
31
0.0
0
LINE
8
Layer_1
62
0
5
11b
100
AcDbEntity
100
AcDbLine
10
-6.917578
20
8.145446
30
0.0
11
-6.462985
21
7.902399
31
0.0
0
LINE
8
Layer_1
62
0
5
11c
100
AcDbEntity
100
AcDbLine
10
-6.462985
20
7.902399
30
0.0
11
-6.063273
21
7.660747
31
0.0
0
LINE
8
Layer_1
62
0
5
11d
100
AcDbEntity
100
AcDbLine
10
-6.063273
20
7.660747
30
0.0
11
-5.723930
21
7.420258
31
0.0
0
LINE
8
Layer_1
62
0
5
11e
100
AcDbEntity
100
AcDbLine
10
-5.723930
20
7.420258
30
0.0
11
-5.450443
21
7.180699
31
0.0
0
LINE
8
Layer_1
62
0
5
11f
100
AcDbEntity
100
AcDbLine
10
-5.450443
20
7.180699
30
0.0
11
-5.248300
21
6.941838
31
0.0
0
LINE
8
Layer_1
62
0
5
120
100
AcDbEntity
100
AcDbLine
10
-5.248300
20
6.941838
30
0.0
11
-5.175698
21
6.822596
31
0.0
0
LINE
8
Layer_1
62
0
5
121
100
AcDbEntity
100
AcDbLine
10
-5.175698
20
6.822596
30
0.0
11
-5.122990
21
6.703441
31
0.0
0
LINE
8
Layer_1
62
0
5
122
100
AcDbEntity
100
AcDbLine
10
-5.122990
20
6.703441
30
0.0
11
-5.090862
21
6.584345
31
0.0
0
LINE
8
Layer_1
62
0
5
123
100
AcDbEntity
100
AcDbLine
10
-5.090862
20
6.584345
30
0.0
11
-5.080000
21
6.465278
31
0.0
0
LINE
8
Layer_1
62
0
5
124
100
AcDbEntity
100
AcDbLine
10
20.066000
20
15.355278
30
0.0
11
20.055138
21
15.177609
31
0.0
0
LINE
8
Layer_1
62
0
5
125
100
AcDbEntity
100
AcDbLine
10
20.055138
20
15.177609
30
0.0
11
20.023010
21
15.001772
31
0.0
0
LINE
8
Layer_1
62
0
5
126
100
AcDbEntity
100
AcDbLine
10
20.023010
20
15.001772
30
0.0
11
19.970302
21
14.827737
31
0.0
0
LINE
8
Layer_1
62
0
5
127
100
AcDbEntity
100
AcDbLine
10
19.970302
20
14.827737
30
0.0
11
19.897700
21
14.655475
31
0.0
0
LINE
8
Layer_1
62
0
5
128
100
AcDbEntity
100
AcDbLine
10
19.897700
20
14.655475
30
0.0
11
19.805890
21
14.484958
31
0.0
0
LINE
8
Layer_1
62
0
5
129
100
AcDbEntity
100
AcDbLine
10
19.805890
20
14.484958
30
0.0
11
19.695557
21
14.316155
31
0.0
0
LINE
8
Layer_1
62
0
5
12a
100
AcDbEntity
100
AcDbLine
10
19.695557
20
14.316155
30
0.0
11
19.422070
21
13.983578
31
0.0
0
LINE
8
Layer_1
62
0
5
12b
100
AcDbEntity
100
AcDbLine
10
19.422070
20
13.983578
30
0.0
11
19.082727
21
13.657513
31
0.0
0
LINE
8
Layer_1
62
0
5
12c
100
AcDbEntity
100
AcDbLine
10
19.082727
20
13.657513
30
0.0
11
18.683015
21
13.337726
31
0.0
0
LINE
8
Layer_1
62
0
5
12d
100
AcDbEntity
100
AcDbLine
10
18.683015
20
13.337726
30
0.0
11
18.228422
21
13.023986
31
0.0
0
LINE
8
Layer_1
62
0
5
12e
100
AcDbEntity
100
AcDbLine
10
18.228422
20
13.023986
30
0.0
11
17.724438
21
12.716059
31
0.0
0
LINE
8
Layer_1
62
0
5
12f
100
AcDbEntity
100
AcDbLine
10
17.724438
20
12.716059
30
0.0
11
17.176548
21
12.413713
31
0.0
0
LINE
8
Layer_1
62
0
5
130
100
AcDbEntity
100
AcDbLine
10
17.176548
20
12.413713
30
0.0
11
16.590243
21
12.116716
31
0.0
0
LINE
8
Layer_1
62
0
5
131
100
AcDbEntity
100
AcDbLine
10
16.590243
20
12.116716
30
0.0
11
15.971010
21
11.824834
31
0.0
0
LINE
8
Layer_1
62
0
5
132
100
AcDbEntity
100
AcDbLine
10
15.971010
20
11.824834
30
0.0
11
15.324336
21
11.537836
31
0.0
0
LINE
8
Layer_1
62
0
5
133
100
AcDbEntity
100
AcDbLine
10
15.324336
20
11.537836
30
0.0
11
13.970620
21
10.977560
31
0.0
0
LINE
8
Layer_1
62
0
5
134
100
AcDbEntity
100
AcDbLine
10
13.970620
20
10.977560
30
0.0
11
12.573000
21
10.434028
31
0.0
0
LINE
8
Layer_1
62
0
5
135
100
AcDbEntity
100
AcDbLine
10
12.573000
20
10.434028
30
0.0
11
9.821664
21
9.389750
31
0.0
0
LINE
8
Layer_1
62
0
5
136
100
AcDbEntity
100
AcDbLine
10
9.821664
20
9.389750
30
0.0
11
8.555757
21
8.885285
31
0.0
0
LINE
8
Layer_1
62
0
5
137
100
AcDbEntity
100
AcDbLine
10
8.555757
20
8.885285
30
0.0
11
7.421563
21
8.390121
31
0.0
0
LINE
8
Layer_1
62
0
5
138
100
AcDbEntity
100
AcDbLine
10
7.421563
20
8.390121
30
0.0
11
6.917578
21
8.145446
31
0.0
0
LINE
8
Layer_1
62
0
5
139
100
AcDbEntity
100
AcDbLine
10
6.917578
20
8.145446
30
0.0
11
6.462985
21
7.902399
31
0.0
0
LINE
8
Layer_1
62
0
5
13a
100
AcDbEntity
100
AcDbLine
10
6.462985
20
7.902399
30
0.0
11
6.063273
21
7.660747
31
0.0
0
LINE
8
Layer_1
62
0
5
13b
100
AcDbEntity
100
AcDbLine
10
6.063273
20
7.660747
30
0.0
11
5.723930
21
7.420258
31
0.0
0
LINE
8
Layer_1
62
0
5
13c
100
AcDbEntity
100
AcDbLine
10
5.723930
20
7.420258
30
0.0
11
5.450443
21
7.180699
31
0.0
0
LINE
8
Layer_1
62
0
5
13d
100
AcDbEntity
100
AcDbLine
10
5.450443
20
7.180699
30
0.0
11
5.248300
21
6.941838
31
0.0
0
LINE
8
Layer_1
62
0
5
13e
100
AcDbEntity
100
AcDbLine
10
5.248300
20
6.941838
30
0.0
11
5.175698
21
6.822596
31
0.0
0
LINE
8
Layer_1
62
0
5
13f
100
AcDbEntity
100
AcDbLine
10
5.175698
20
6.822596
30
0.0
11
5.122990
21
6.703441
31
0.0
0
LINE
8
Layer_1
62
0
5
140
100
AcDbEntity
100
AcDbLine
10
5.122990
20
6.703441
30
0.0
11
5.090862
21
6.584345
31
0.0
0
LINE
8
Layer_1
62
0
5
141
100
AcDbEntity
100
AcDbLine
10
5.090862
20
6.584345
30
0.0
11
5.080000
21
6.465278
31
0.0
  0
ENDSEC
  0
SECTION
  2
OBJECTS
  0
DICTIONARY
  5
C
330
0
100
AcDbDictionary
  3
ACAD_GROUP
350
D
  3
ACAD_MLINESTYLE
350
17
  0
DICTIONARY
  5
D
330
C
100
AcDbDictionary
  0
DICTIONARY
  5
1A
330
C
100
AcDbDictionary
  0
DICTIONARY
  5
17
330
C
100
AcDbDictionary
  3
STANDARD
350
18
  0
DICTIONARY
  5
19
330
C
100
AcDbDictionary
  0
ENDSEC
  0
EOF
